<svg xmlns="http://www.w3.org/2000/svg" width="32" height="32" viewBox="0 0 32 32">
  <!-- Pointing finger pixel cursor -->
  <rect x="8" y="0" width="4" height="4" fill="#1a1c2c"/>
  <rect x="12" y="0" width="4" height="4" fill="#1a1c2c"/>
  <rect x="8" y="4" width="4" height="4" fill="#1a1c2c"/>
  <rect x="12" y="4" width="4" height="4" fill="#ffcd75"/>
  <rect x="16" y="4" width="4" height="4" fill="#1a1c2c"/>
  <rect x="8" y="8" width="4" height="4" fill="#1a1c2c"/>
  <rect x="12" y="8" width="4" height="4" fill="#ffcd75"/>
  <rect x="16" y="8" width="4" height="4" fill="#1a1c2c"/>
  <rect x="8" y="12" width="4" height="4" fill="#1a1c2c"/>
  <rect x="12" y="12" width="4" height="4" fill="#ffcd75"/>
  <rect x="16" y="12" width="4" height="4" fill="#1a1c2c"/>
  <rect x="0" y="16" width="4" height="4" fill="#1a1c2c"/>
  <rect x="4" y="16" width="4" height="4" fill="#1a1c2c"/>
  <rect x="8" y="16" width="4" height="4" fill="#1a1c2c"/>
  <rect x="12" y="16" width="4" height="4" fill="#ffcd75"/>
  <rect x="16" y="16" width="4" height="4" fill="#ffcd75"/>
  <rect x="20" y="16" width="4" height="4" fill="#1a1c2c"/>
  <rect x="0" y="20" width="4" height="4" fill="#1a1c2c"/>
  <rect x="4" y="20" width="4" height="4" fill="#ffcd75"/>
  <rect x="8" y="20" width="4" height="4" fill="#ffcd75"/>
  <rect x="12" y="20" width="4" height="4" fill="#ffcd75"/>
  <rect x="16" y="20" width="4" height="4" fill="#ffcd75"/>
  <rect x="20" y="20" width="4" height="4" fill="#ffcd75"/>
  <rect x="24" y="20" width="4" height="4" fill="#1a1c2c"/>
  <rect x="0" y="24" width="4" height="4" fill="#1a1c2c"/>
  <rect x="4" y="24" width="4" height="4" fill="#ffcd75"/>
  <rect x="8" y="24" width="4" height="4" fill="#ffcd75"/>
  <rect x="12" y="24" width="4" height="4" fill="#ffcd75"/>
  <rect x="16" y="24" width="4" height="4" fill="#ffcd75"/>
  <rect x="20" y="24" width="4" height="4" fill="#ffcd75"/>
  <rect x="24" y="24" width="4" height="4" fill="#1a1c2c"/>
  <rect x="4" y="28" width="4" height="4" fill="#1a1c2c"/>
  <rect x="8" y="28" width="4" height="4" fill="#1a1c2c"/>
  <rect x="12" y="28" width="4" height="4" fill="#1a1c2c"/>
  <rect x="16" y="28" width="4" height="4" fill="#1a1c2c"/>
  <rect x="20" y="28" width="4" height="4" fill="#1a1c2c"/>
</svg>
